<svg width="36" height="36" viewBox="0 0 36 36" fill="none" xmlns="http://www.w3.org/2000/svg">
<circle cx="18" cy="18" r="17.5" transform="rotate(180 18 18)" stroke="#A1B0CC"/>
<path fill-rule="evenodd" clip-rule="evenodd" d="M19.7942 9.29494C19.2297 9.10345 18.6259 9 18 9C15.1535 9 12.7622 11.1403 12.4479 13.9694L12.1961 16.2356L12.1896 16.2933C12.0607 17.417 11.6949 18.5005 11.1165 19.4725L11.0867 19.5222L10.5087 20.4856C9.98411 21.3599 9.72183 21.797 9.77845 22.1559C9.81613 22.3946 9.93902 22.6117 10.1244 22.7668C10.403 23 10.9127 23 11.9323 23H24.0678C25.0874 23 25.5971 23 25.8757 22.7668C26.0611 22.6117 26.184 22.3946 26.2216 22.1559C26.2783 21.797 26.016 21.3599 25.4914 20.4856L24.9134 19.5222L24.8836 19.4725C24.4274 18.7059 24.1034 17.8698 23.9237 16.9994C21.1975 16.9586 19 14.7359 19 12C19 11.0033 19.2917 10.0747 19.7942 9.29494ZM22.2741 10.9888C22.0999 11.2855 22 11.6311 22 12C22 12.9498 22.6621 13.7449 23.5499 13.9491C23.4205 12.8213 22.9609 11.8038 22.2741 10.9888Z" fill="#FF3A8E"/>
<path d="M15 23C15 23.394 15.0776 23.7841 15.2284 24.1481C15.3791 24.512 15.6001 24.8427 15.8787 25.1213C16.1573 25.3999 16.488 25.6209 16.8519 25.7716C17.2159 25.9224 17.606 26 18 26C18.394 26 18.7841 25.9224 19.1481 25.7716C19.512 25.6209 19.8427 25.3999 20.1213 25.1213C20.3999 24.8427 20.6209 24.512 20.7716 24.1481C20.9224 23.7841 21 23.394 21 23L18 23H15Z" fill="#FF3A8E"/>
<circle cx="24" cy="12" r="2.5" fill="#FF3A8E" stroke="#FF3A8E"/>
</svg>
