<svg width="21" height="20" viewBox="0 0 21 20" fill="none" xmlns="http://www.w3.org/2000/svg">
<g clip-path="url(#clip0_1_479)">
<path d="M11.6406 6.1297C11.6758 6.09343 11.7179 6.06452 11.7644 6.04463C11.8109 6.02474 11.8609 6.01427 11.9115 6.01384C11.9621 6.0134 12.0122 6.023 12.059 6.04209C12.1059 6.06117 12.1485 6.08936 12.1843 6.12501C12.3355 6.2754 12.3375 6.5215 12.1886 6.67423L8.91871 10.0457L12.1855 13.3227C12.3363 13.4738 12.3367 13.7195 12.1871 13.8719C12.1516 13.908 12.1094 13.9367 12.0628 13.9564C12.0162 13.976 11.9661 13.9862 11.9155 13.9863C11.8649 13.9865 11.8148 13.9766 11.7681 13.9572C11.7214 13.9378 11.679 13.9094 11.6433 13.8735L8.10582 10.3246C7.95621 10.1742 7.95464 9.92931 8.10308 9.77697L11.6406 6.1297Z" fill="#9B98A4"/>
<path d="M0.668701 10C0.668701 7.23867 1.78823 4.73867 3.59761 2.92891C5.40737 1.11953 7.90737 0 10.6687 0C13.43 0 15.9304 1.11953 17.7398 2.92891C19.5492 4.73867 20.6687 7.23867 20.6687 10C20.6687 12.7617 19.5496 15.2617 17.7398 17.0711C15.9304 18.8809 13.4304 20 10.6687 20C7.90737 20 5.40737 18.8805 3.59761 17.0711C1.78823 15.2617 0.668701 12.7613 0.668701 10ZM4.14839 3.47969C2.48003 5.14844 1.44761 7.45352 1.44761 10C1.44761 12.5465 2.47964 14.852 4.14839 16.5203C5.81714 18.1887 8.12222 19.2211 10.6687 19.2211C13.2152 19.2211 15.5207 18.1891 17.189 16.5203C18.8578 14.852 19.8898 12.5465 19.8898 10C19.8898 7.45352 18.8574 5.14844 17.189 3.47969C15.5207 1.81094 13.2152 0.778906 10.6687 0.778906C8.12222 0.778906 5.81714 1.81133 4.14839 3.47969Z" fill="#9B98A4"/>
</g>
<defs>
<clipPath id="clip0_1_479">
<rect width="20" height="20" fill="white" transform="translate(0.668701)"/>
</clipPath>
</defs>
</svg>
