<svg width="17" height="17" viewBox="0 0 17 17" fill="none" xmlns="http://www.w3.org/2000/svg">
<path fill-rule="evenodd" clip-rule="evenodd" d="M15.3903 12.0778V14.218C15.3934 15.0059 14.7573 15.6476 13.9695 15.6507C13.9244 15.6507 13.8799 15.6488 13.8351 15.6448C11.6398 15.4062 9.5312 14.6563 7.67864 13.4548C5.95484 12.3593 4.49326 10.898 3.39808 9.1745C2.19248 7.31323 1.44225 5.19441 1.20803 2.98912C1.13711 2.20436 1.71565 1.51074 2.50072 1.43982C2.54271 1.43609 2.58532 1.43391 2.62763 1.43391H4.76791C5.48393 1.42676 6.0945 1.9518 6.19466 2.66097C6.28486 3.34589 6.45251 4.01836 6.69419 4.66564C6.88983 5.18694 6.7648 5.77481 6.37288 6.17077L5.46682 7.07683C6.48237 8.86315 7.96137 10.3415 9.74738 11.3574L10.6534 10.4513C11.0494 10.0597 11.6373 9.93438 12.1586 10.1303C12.8059 10.3717 13.4783 10.5394 14.1632 10.6296C14.8805 10.7306 15.4083 11.3537 15.3903 12.0778Z" stroke="#484554" stroke-width="1.24417" stroke-linecap="round" stroke-linejoin="round"/>
</svg>
