<svg width="40" height="16" viewBox="0 0 40 16" fill="none" xmlns="http://www.w3.org/2000/svg">
<path fill-rule="evenodd" clip-rule="evenodd" d="M38.2312 6.98698C34.7209 4.15056 30.5913 2.18074 26.178 1.23767C22.1212 0.333494 17.9148 0.333275 13.858 1.23789C9.46278 2.17505 5.34854 4.13002 1.84591 6.94568C1.77577 7.00445 1.70869 7.06629 1.64466 7.13075C0.515211 8.26938 0.522641 10.1083 1.66105 11.2376L4.7411 14.3176C5.75759 15.3857 7.4132 15.5227 8.59116 14.6357C9.70707 13.7803 10.9158 13.0531 12.195 12.4693C13.2272 12.0012 13.8927 10.9751 13.8991 9.84131L13.8991 7.23367C17.9309 6.12453 22.1872 6.12432 26.2191 7.23345L26.2191 9.84109C26.2256 10.9747 26.8907 12.0012 27.9234 12.4693C29.2025 13.0536 30.4115 13.7801 31.527 14.636C32.6921 15.5122 34.3256 15.3894 35.3462 14.3486L38.4265 11.2684C38.4875 11.2074 38.5456 11.1436 38.6009 11.077C39.5713 9.91429 39.4777 8.2165 38.4269 7.16571C38.3651 7.10387 38.2996 7.04401 38.2312 6.98698Z" fill="#5755D9"/>
</svg>
