<svg width="22" height="20" viewBox="0 0 22 20" fill="none" xmlns="http://www.w3.org/2000/svg">
<path fill-rule="evenodd" clip-rule="evenodd" d="M20.6724 14.826C20.6724 16.8634 19.0207 18.5147 16.9837 18.5147H4.42977C2.39244 18.5147 0.741119 16.8634 0.741119 14.826V8.2643C0.741119 6.22697 2.39244 4.57565 4.42977 4.57565H16.9837C19.0207 4.57565 20.6724 6.22697 20.6724 8.2643V14.826Z" stroke="#9B98A4" stroke-width="1.24417" stroke-linecap="round" stroke-linejoin="round"/>
<path fill-rule="evenodd" clip-rule="evenodd" d="M14.5791 11.5452C14.5791 13.6836 12.8453 15.4174 10.7069 15.4174C8.56819 15.4174 6.83444 13.6836 6.83444 11.5452C6.83444 9.40681 8.56819 7.67307 10.7069 7.67307C12.8453 7.67307 14.5791 9.40681 14.5791 11.5452Z" stroke="#9B98A4" stroke-width="1.24417" stroke-linecap="round" stroke-linejoin="round"/>
<path d="M12.6658 1.42877H18.0036" stroke="#9B98A4" stroke-width="1.24417" stroke-linecap="round" stroke-linejoin="round"/>
</svg>
