<svg width="25" height="25" viewBox="0 0 25 25" fill="none" xmlns="http://www.w3.org/2000/svg">
<path fill-rule="evenodd" clip-rule="evenodd" d="M2.00003 11.8428C1.99625 13.3093 2.33877 14.7559 3.00019 16.065C4.59901 19.2643 7.86791 21.2858 11.4446 21.2871C12.911 21.2911 14.3577 20.9484 15.6667 20.2871L22 22.3984L19.8889 16.065C20.5501 14.7559 20.8929 13.3093 20.8889 11.8428C20.8876 8.26632 18.8661 4.99723 15.6667 3.39841C14.3577 2.73718 12.911 2.39447 11.4446 2.39844H10.889C6.09367 2.66289 2.26467 6.49189 2.00003 11.2872V11.8428Z" stroke="#9B98A4" stroke-width="3.11042"/>
<path fill-rule="evenodd" clip-rule="evenodd" d="M8.59522 9.95896C8.5818 9.57485 8.62963 9.22647 8.73926 8.91381C8.84871 8.60116 9.00069 8.342 9.19502 8.13652C9.38934 7.93105 9.61844 7.75789 9.88214 7.61725C10.1456 7.47662 10.4216 7.37605 10.7099 7.31575C10.998 7.25545 11.2985 7.2254 11.6112 7.2254C12.1475 7.2254 12.6333 7.31254 13.069 7.48664C13.5047 7.66073 13.8608 7.93672 14.138 8.31402C14.4151 8.69151 14.5536 9.14386 14.5536 9.67088C14.5536 9.94781 14.5177 10.1992 14.4463 10.4245C14.3748 10.6501 14.2663 10.8512 14.1211 11.0275C13.976 11.2041 13.8408 11.3457 13.7157 11.4531C13.5905 11.5602 13.4274 11.6852 13.2265 11.8283C12.9896 11.998 12.8199 12.123 12.717 12.2035C12.6142 12.2838 12.5095 12.3854 12.4021 12.5082C12.2949 12.6313 12.2255 12.754 12.1944 12.8768C12.1632 12.9997 12.1475 13.1526 12.1475 13.3358V13.6842H10.5454L10.5388 13.2955C10.5076 12.822 10.5957 12.4124 10.8037 12.0661C11.0114 11.72 11.3207 11.4039 11.732 11.1181C11.9284 10.9841 12.0747 10.8792 12.1711 10.8032C12.2668 10.7272 12.3685 10.6334 12.4758 10.5217C12.583 10.4102 12.6579 10.2951 12.7004 10.1767C12.7427 10.0584 12.7641 9.92324 12.7641 9.77125C12.7641 9.40945 12.6435 9.13592 12.4021 8.95067C12.1609 8.76542 11.8636 8.67242 11.5106 8.67242C11.104 8.67242 10.788 8.79321 10.5625 9.03441C10.3366 9.27543 10.2239 9.58374 10.2239 9.95896H8.59522Z" fill="#9B98A4"/>
<path fill-rule="evenodd" clip-rule="evenodd" d="M10.5348 16.4748H12.1582V14.8514H10.5348V16.4748Z" fill="#9B98A4"/>
</svg>
