<svg width="32" height="32" viewBox="0 0 32 32" fill="none" xmlns="http://www.w3.org/2000/svg">
<path fill-rule="evenodd" clip-rule="evenodd" d="M11.8522 30.8282H8.0789C6.68948 30.8338 5.55915 29.7122 5.55324 28.3231C5.55293 28.2441 5.55635 28.1651 5.5632 28.0864C5.98404 24.2161 7.30659 20.4985 9.42447 17.2323C11.3554 14.1934 13.9321 11.617 16.971 9.6861C20.2522 7.56044 23.9878 6.23758 27.8755 5.82482C29.259 5.69978 30.482 6.72 30.6071 8.10352C30.6136 8.17817 30.617 8.25282 30.6173 8.32778V12.101C30.6294 13.3635 29.7044 14.4398 28.454 14.6161C27.2462 14.7757 26.0609 15.0709 24.92 15.4967C24.0005 15.8422 22.9644 15.6211 22.2658 14.9306L20.6686 13.3334C17.52 15.1237 14.9128 17.7309 13.1224 20.8799L14.7196 22.4771C15.4099 23.1754 15.631 24.2118 15.2854 25.1309C14.8599 26.2718 14.5644 27.4575 14.4052 28.6649C14.227 29.9296 13.1287 30.86 11.8522 30.8282Z" stroke="#9B98A4" stroke-width="1.24417" stroke-linecap="round" stroke-linejoin="round"/>
<path fill-rule="evenodd" clip-rule="evenodd" d="M16.9682 8.97698C16.9682 13.3826 13.3969 16.954 8.99126 16.954C4.58567 16.954 1.01428 13.3826 1.01428 8.97698C1.01428 4.57138 4.58567 1 8.99126 1C13.3969 1 16.9682 4.57138 16.9682 8.97698Z" fill="#F4F4F6"/>
<path fill-rule="evenodd" clip-rule="evenodd" d="M16.9682 8.97698C16.9682 13.3826 13.3969 16.954 8.99126 16.954C4.58567 16.954 1.01428 13.3826 1.01428 8.97698C1.01428 4.57138 4.58567 1 8.99126 1C13.3969 1 16.9682 4.57138 16.9682 8.97698Z" stroke="#9B98A4" stroke-width="1.24417" stroke-linecap="round" stroke-linejoin="round"/>
<path d="M7.22174 6.63232V11.3216" stroke="#9B98A4" stroke-width="1.24417" stroke-linecap="round" stroke-linejoin="round"/>
<path d="M10.7608 6.63232V11.3216" stroke="#9B98A4" stroke-width="1.24417" stroke-linecap="round" stroke-linejoin="round"/>
</svg>
